<svg xmlns="http://www.w3.org/2000/svg" viewBox="0 0 1238 1587"><defs><style>.cls-1{fill:#e0e0d7;}.cls-2{opacity:0.5;}.cls-3,.cls-4,.cls-5,.cls-6{fill:#ccb374;}.cls-4{opacity:0.78;}.cls-5{opacity:0.75;}.cls-6{font-size:16px;}.cls-6,.cls-7{font-family:AdobeMyungjoStd-Medium-KSCpc-EUC-H, Adobe Myungjo Std;}.cls-7{font-size:12px;fill:#c69c6d;}</style></defs><g id="레이어_2" data-name="레이어 2"><g id="레이어_2-2" data-name="레이어 2"><rect class="cls-1" width="1238" height="1587"/><g class="cls-2"><path class="cls-3" d="M281.33,762C177.83,589.4,107.24,456.24,87.87,404.2c-4.4-11.83-12.46-36.4-8.88-66.53,1.48-12.45,5.2-43.79,30.6-65.51,7.18-6.14,8.13-3.57,38.49-18.14,21.8-10.46,32.7-15.69,40.47-21.17,21.46-15.13,18.55-24.53,47.37-57.45,17.75-20.26,27.85-31.79,45.41-40.31,8.33-4.05,20.49-8.46,57.24-10.08,28.54-1.26,52.06-2.3,84.89,3,15.3,2.48,101.1,17.44,132.26,60.48a94.85,94.85,0,0,1,14.8,32.25,94.36,94.36,0,0,1,0,33.26C565.45,280.66,448.76,485.53,281.33,762Z"/><path class="cls-3" d="M430,545.88c66.81,44.86,120.5,72.58,144.4,81.68A196.83,196.83,0,0,0,630.56,640c5.89.22,10.26.06,12,0,18.15-.64,57.13-.77,145.4,1,10.78-62.53-7.39-95.82-15-107.53-9.53-14.59-25.79-31-39.11-44.46,0,0-18.47-18.65-37.1-34.12-30.1-25-85.39-57.88-167.47-87.89C497.85,427.31,461.42,485.56,430,545.88Z"/><path class="cls-3" d="M533,354.4A1030.42,1030.42,0,0,1,713.27,49c52.49,12.06,74.64,32.91,85.07,50.23,8.76,14.56,12.37,31.82,32.41,55.25,7,8.16,13.09,13.73,20.25,25.12,13.36,21.23,7.24,22.65,16.21,31.14,11.56,10.95,27.35,10.41,68.86,9,20.64-.68,65-.15,66.85,9,.76,3.85,17.81,11.08,8.1,19.08-6.66,5.49-37.93,11.17-47.6,17.08-64.12,39.18-58.65,79.7-116.47,108.5-28.89,14.4-41.35,6.78-58.74,24.11-23.31,23.23-31.25,59-28.35,86.4-37.48-20.92-59.75-51.41-97.23-72.33C622.13,389.06,573.51,377,533,354.4Z"/><path class="cls-3" d="M784,518.07a166,166,0,0,1,15.36,36.12A175.93,175.93,0,0,1,803.45,633H972.4q1-24.63,2.05-49.26H1041l-1-201.4c-20.48,1.09-41.5-3.26-62-2.16-.68,42.69-.82,90.82-1.51,133.51Z"/><path class="cls-3" d="M425,552a590.82,590.82,0,0,0,59,37c6.19,3.39,21.79,10.92,53,26s39.19,18.63,51,22a187,187,0,0,0,44,7q-.5,100-1,200l-332,5q-1-49-2-98Z"/><path class="cls-3" d="M647,645q-2,99.94-4,199.88L821,850c1.33-69.36-3.33-135.64-2-205C759.67,646,706.33,644,647,645Z"/><path class="cls-3" d="M832,644q-1,101.25-2,202.48l152,1c10.93-6.62,29.1-15.57,52-16.36,31-1.07,47,13.6,65,16.36,24,3.68,62-12.18,121-108.39l-62-85.9-93,72.6L1062,643Z"/><path class="cls-4" d="M304,875c435.37-3.38,752.3-5.69,775-6,2.89,0,11.67-.19,20,5,12.8,8,16.54,23.55,18,30,11.81,52.29-26.93,146.68,2,189,20.8,30.43,61.9,12.44,85,34,32.84,30.65-40.48,173.24-197,438-251.67-134.33-445.33-311.67-697-446Z"/><path class="cls-5" d="M230,1061a18.42,18.42,0,0,0,2.82,6.58A17.3,17.3,0,0,0,236,1071s4.85,3.71,28,2c8.23-173.2,9.38-234.79,8-250a183.68,183.68,0,0,1,0-35c1-11,3.4-19.2,3-20C261,740,156,578,88,432c-39.78-85.41-5-117.76-29-108-14.43,5.86-18.69,37.89-16,58,4.53,33.92,29.35,37.67,34,70,5,35.09-21.28,51-12,76,8.27,22.31,39.06,12.58,52,35,11.94,20.68-4.93,40.66-6,72-1.16,33.93,20.07,43.6,47,98,15.28,30.87,10.78,62.72,31,81a120.43,120.43,0,0,1,17,18c7.56,9.91,8,16.75,17,31,4.52,7.13,7.84,11.08,10,14,17.55,23.71,30.2,75.75,9,109-5.46,8.56-7.81,7.49-12,16C230,1002,220.78,1020.74,230,1061Z"/></g><polyline class="cls-3" points="560 330 581 370 612 354 631 362 648 390 688 367 666 325 635 344 617 337 601 308 562 330"/><polygon class="cls-3" points="587 253 650 287 669 255 605 218 587 253"/><polygon class="cls-3" points="625 187 699 228 717 257 738 247 717 211 639 166 625 187"/><polygon class="cls-3" points="668 138 733 173 756 211 776 201 749 155 680 118 668 138"/><polygon class="cls-3" points="697 80 778 127 802 166 822 154 796 107 708 60 697 80"/><polygon class="cls-3" points="824 205 851 252 933 251 932 223 863 224 845 192 824 205"/><polygon class="cls-3" points="762 305 778 333 839 333 840 358 767 358 742 316 762 305"/><polygon class="cls-3" points="385 252 386 316 482 317 482 252 385 252"/><polygon class="cls-3" points="221 281 221 320 325 321 326 282 221 281"/><polygon class="cls-3" points="171 309 171 355 200 355 200 310 171 309"/><polygon class="cls-3" points="106 327 106 357 159 357 159 326 106 327"/><polygon class="cls-3" points="108 389 108 420 252 420 252 388 108 389"/><polygon class="cls-3" points="284 372 284 405 398 405 398 389 394 389 394 373 284 372"/><rect class="cls-3" x="162" y="443" width="39" height="66"/><polygon class="cls-3" points="356 441 356 463 316 463 316 454 312 454 311 446 316 446 316 440 356 441"/><polygon class="cls-3" points="369 449 368 529 179 529 179 543 189 544 189 559 387 558 388 543 398 543 398 486 393 485 393 475 397 475 401 472 400 448 369 449"/><polygon class="cls-3" points="148 609 147 683 180 683 180 609 148 609"/><polygon class="cls-3" points="347 714 346 834 422 835 423 715 347 714"/><polygon class="cls-3" points="477 521 459 553 574 618 592 586 580 580 587 570 583 567 587 558 605 544 597 535 586 529 571 524 567 545 562 555 558 553 551 564 477 521"/><polygon class="cls-3" points="526 423 520 421 524 411 531 408 523 403 531 387 573 410 590 407 593 419 617 413 631 463 598 445 494 474 526 423"/><polygon class="cls-3" points="648 430 648 455 641 468 649 490 619 544 625 547 612 569 638 567 678 495 679 456 670 452 668 440 648 430"/><polygon class="cls-3" points="975 405 976 432 1007 432 1007 467 995 467 995 494 1000 495 1001 515 997 515 997 510 974 511 974 586 1031 587 1030 559 1007 559 1007 496 1037 496 1037 404 975 405"/><polygon class="cls-3" points="826 522 827 544 840 545 840 584 910 584 910 587 934 588 933 529 899 528 899 522 826 522"/><polygon class="cls-3" points="977 656 976 695 1039 695 1039 666 1054 666 1054 650 1024 650 1024 656 977 656"/><polygon class="cls-3" points="968 735 969 761 1024 758 1024 733 968 735"/><polygon class="cls-3" points="1063 748 1119 813 1211 732 1154 666 1063 748"/><polygon class="cls-3" points="830 680 831 707 906 722 906 749 911 747 912 779 953 780 951 748 958 745 957 679 830 680"/><rect class="cls-3" x="653" y="663" width="107" height="97"/><path class="cls-3" d="M541,807l-1-15h-2V747h3V734l9-3-4,15h4l9-21,22-12,16,11,7,11,3,4s13,28-1,62l-2,3s-7,16-22,20l-21-9-10-20h-7l5,12Z"/><text class="cls-6" transform="translate(574.92 775.97)">?</text><path class="cls-3" d="M211,594c0,1-.06,3.25,0,6,.47,21,13.43,41.66,23.23,62.08,11.13,23.17,20.32,45.12,41.29,49.73a48.28,48.28,0,0,0,20.88,0c13.35-3,28.54-31.87,38.52-50.74,12.62-23.87,23.66-40.49,27.9-59,.95-4.15-2.16-7.36-2.84-9.07Z"/><rect class="cls-3" x="338" y="904" width="149" height="87"/><rect class="cls-3" x="338" y="1000" width="150" height="87"/><rect class="cls-3" x="506" y="877" width="187" height="152"/><polygon class="cls-3" points="725 884 728 992 742 993 745 1202 754 1212 754 1347 952 1353 952 1202 1004 1202 1001 1221 1053 1225 1044 881 725 884"/><text class="cls-7" transform="translate(540.21 436.17)">학생회관</text><text class="cls-7" transform="translate(576.92 957.06)">가온마당</text></g></g></svg>